<?xml version="1.0" encoding="UTF-8"?>
<svg id="Layer_1" data-name="Layer 1" xmlns="http://www.w3.org/2000/svg" viewBox="0 0 164.48 164.4">
  <defs>
    <style>
      .cls-1 {
        fill: #1a1515;
      }

      .cls-2 {
        fill: #8c7070;
        stroke: #725a5a;
        stroke-miterlimit: 10;
        stroke-width: 2px;
      }
    </style>
  </defs>
  <path class="cls-2" d="m161.01,63.17c-3.31,4.95-8.94,8.21-15.34,8.21s-12.26-3.43-15.54-8.56c-3.74,1.86-7.93,2.92-12.39,2.92-15.42,0-27.93-12.5-27.93-27.93,0-3.69.79-7.17,2.1-10.38-8.44-1.41-14.89-8.7-14.89-17.55,0-3.23.92-6.21,2.42-8.82C35.89,2.54,1,38.23,1,82.16s36.37,81.24,81.24,81.24,81.24-36.37,81.24-81.24c0-6.57-.99-12.87-2.47-18.99Z"/>
  <g>
    <path class="cls-1" d="m43.4,62.14c6.95-.29,14.03,5.86,13.4,14.55-.43,5.91-5.65,12.89-14.61,12.28-5.9-.4-12.87-5.62-12.25-14.63.42-6.14,5.84-12.42,13.45-12.21Z"/>
    <path class="cls-1" d="m100.37,109.08c5.11-.35,10.61,4.45,10.1,10.93-.34,4.32-4.3,9.68-10.96,9.22-4.25-.29-9.79-4.21-9.21-11.15.37-4.43,4.49-9.23,10.07-8.99Z"/>
    <path class="cls-1" d="m43.37,112.4c-.33-5.08,4.42-10.62,11.03-10.06,4.2.36,9.59,4.24,9.11,11-.3,4.28-4.26,9.65-10.99,9.18-4.49-.32-9.43-4.48-9.15-10.12Z"/>
    <path class="cls-1" d="m76.92,75.55c3.41-.24,7.06,2.89,6.71,7.33-.21,2.73-2.69,6.44-7.35,6.1-2.73-.19-6.44-2.66-6.1-7.35.22-3.06,2.96-6.27,6.74-6.08Z"/>
    <path class="cls-1" d="m70.2,48.7c.27,3.35-2.82,7.1-7.29,6.76-2.74-.21-6.49-2.65-6.15-7.38.21-2.84,2.78-6.41,7.37-6.08,3.02.22,6.23,2.97,6.06,6.7Z"/>
  </g>
</svg>